<svg xmlns="http://www.w3.org/2000/svg" viewBox="0 0 255 274"><path fill="#40ccaa" fill-opacity=".45" stroke="#40ccaa" stroke-opacity=".45" stroke-width="1.3" d="M118 69.5c0 .3.2.5.5.5s.5-.2.5-.5-.2-.5-.5-.5-.5.2-.5.5zm74.3.2.7.6.7-.6.6-.7h-2.6zm6 1 .7.6.7-.6.6-.7h-2.6zm-82.3.8c0 .3.2.5.5.5s.5-.2.5-.5-.2-.5-.5-.5-.5.2-.5.5zm86.3.2.7.6.7-.6.6-.7h-2.6zm3.7.8c0 .3.2.5.5.5s.5-.2.5-.5-.2-.5-.5-.5-.5.2-.5.5zm3 1c0 .3.2.5.5.5s.5-.2.5-.5-.2-.5-.5-.5-.5.2-.5.5zm2 1c0 .3.2.5.5.5s.5-.2.5-.5-.2-.5-.5-.5-.5.2-.5.5zm2 1c0 .3.2.5.5.5s.5-.2.5-.5-.2-.5-.5-.5-.5.2-.5.5zm2 1c0 .3.2.5.5.5s.5-.2.5-.5-.2-.5-.5-.5-.5.2-.5.5zm2 1c0 .3.2.5.5.5s.5-.2.5-.5-.2-.5-.5-.5-.5.2-.5.5zm2 1c0 .3.2.5.5.5s.5-.2.5-.5-.2-.5-.5-.5-.5.2-.5.5zm2.5 1.5c.3.5.8 1 1.1 1s.2-.5-.1-1c-.3-.6-.8-1-1.1-1s-.2.4.1 1zm4 3c.3.5.8 1 1.1 1s.2-.5-.1-1c-.3-.6-.8-1-1.1-1s-.2.4.1 1zM115 88.5c0 .3.2.5.5.5s.5-.2.5-.5-.2-.5-.5-.5-.5.2-.5.5zm-25.7 2.2c.9.2 2.3.2 3 0l1.2-.5h-6zm11 0 .7.6.7-.6.6-.7h-2.6zm4.5 0c1.2.2 3.2.2 4.5 0l2.2-.4h-9zm-18.8.8c0 .3.2.5.5.5s.5-.2.5-.5-.2-.5-.5-.5-.5.2-.5.5zm148 0c0 .3.2.5.5.5s.5-.2.5-.5-.2-.5-.5-.5-.5.2-.5.5zM94 93v1.3l.7-.6.6-.7-.6-.7-.7-.6zm4 1.5c0 .3.2.5.5.5s.5-.2.5-.5-.2-.5-.5-.5-.5.2-.5.5zm2.8 1.2c.7.3 1.6.2 1.9-.1.4-.3-.2-.6-1.3-.5l-1.9.1zm136.2-.2c0 .3.2.5.5.5s.5-.2.5-.5-.2-.5-.5-.5-.5.2-.5.5zm-122 1c0 .3.2.5.5.5s.5-.2.5-.5-.2-.5-.5-.5-.5.2-.5.5zm124 2c0 .3.2.5.5.5s.5-.2.5-.5-.2-.5-.5-.5-.5.2-.5.5zm-123 2c0 .3.2.5.5.5s.5-.2.5-.5-.2-.5-.5-.5-.5.2-.5.5zm124 0c0 .3.2.5.5.5s.5-.2.5-.5-.2-.5-.5-.5-.5.2-.5.5zm-122 2c0 .3.2.5.5.5s.5-.2.5-.5-.2-.5-.5-.5-.5.2-.5.5zm71 1c0 .3.2.5.5.5s.5-.2.5-.5-.2-.5-.5-.5-.5.2-.5.5zm3.3 1.2.7.6.7-.6.6-.7h-2.6zm50.7 1.8c0 .3.2.5.5.5s.5-.2.5-.5-.2-.5-.5-.5-.5.2-.5.5zm-42 2c0 .3.2.5.5.5s.5-.2.5-.5-.2-.5-.5-.5-.5.2-.5.5zm2 2c0 .3.2.5.5.5s.5-.2.5-.5-.2-.5-.5-.5-.5.2-.5.5zm-142.2 1.2c.7.3 1.6.2 1.9-.1.4-.3-.2-.6-1.3-.5l-1.9.1zm5.2-.2c0 .3.2.5.5.5s.5-.2.5-.5-.2-.5-.5-.5-.5.2-.5.5zm11.8.2c2.8.2 7.6.2 10.5 0l5.2-.3h-21zm23.2-.2c0 .3.2.5.5.5s.5-.2.5-.5-.2-.5-.5-.5-.5.2-.5.5zm7 0c0 .3.2.5.5.5s.5-.2.5-.5-.2-.5-.5-.5-.5.2-.5.5zm7.3.2c.9.2 2.5.2 3.5 0l1.7-.5h-7zm8.7-.2c0 .3.2.5.5.5s.5-.2.5-.5-.2-.5-.5-.5-.5.2-.5.5zm-56.4 3.2-.7 1.8 1.2-1.2c.7-.7 1-1.5.7-1.8s-.9.2-1.2 1.2zm35.4-1.2c0 .3.2.5.5.5s.5-.2.5-.5-.2-.5-.5-.5-.5.2-.5.5zm143 1c0 .3.2.5.5.5s.5-.2.5-.5-.2-.5-.5-.5-.5.2-.5.5zm-187 1c0 .3.2.5.5.5s.5-.2.5-.5-.2-.5-.5-.5-.5.2-.5.5zm13 0c0 .3.2.5.5.5s.5-.2.5-.5-.2-.5-.5-.5-.5.2-.5.5zm30 0c0 .3.2.5.5.5s.5-.2.5-.5-.2-.5-.5-.5-.5.2-.5.5zm-23 1c0 .3.2.5.5.5s.5-.2.5-.5-.2-.5-.5-.5-.5.2-.5.5zm129 0c0 .3.2.5.5.5s.5-.2.5-.5-.2-.5-.5-.5-.5.2-.5.5zm39 2c0 .3.2.5.5.5s.5-.2.5-.5-.2-.5-.5-.5-.5.2-.5.5zM49.5 127l-.6 1 1.5-.6c1.8-.7 2.1-1.4.7-1.4-.6 0-1.3.4-1.6 1zm23 0c.3.5.8 1 1.1 1s.2-.5-.1-1c-.3-.6-.8-1-1.1-1s-.2.4.1 1zm7.5-.5c0 .3.2.5.5.5s.5-.2.5-.5-.2-.5-.5-.5-.5.2-.5.5zm132 4c0 .3.2.5.5.5s.5-.2.5-.5-.2-.5-.5-.5-.5.2-.5.5z"/><g fill="#0ca" stroke="#0ca" stroke-width="1.3"><path d="M119 69.5c0 .3.2.5.5.5s.5-.2.5-.5-.2-.5-.5-.5-.5.2-.5.5zm7 0c0 .3.2.5.5.5s.5-.2.5-.5-.2-.5-.5-.5-.5.2-.5.5zm24 .6 2.5.9-8.4-.6-8.3-.6-8.6.7-8.5.8-.5 2-.5 2.1-.8-2-.8-1.9.1 9.1c0 5-.2 9.7-.6 10.3l-.7 1.1H110v.9c0 1.3 2.7 2.1 4.8 1.4l1.7-.6-.8.8-.7.9 3.7 1.4c2.1.8 4.9 1.4 6.3 1.4h2.4l.4-1.1.4-1.1 1.6.9c.9.5 3.6 1.2 6 1.6l4.2.7 5.5-1.7 5.5-1.8 1.5 1.3 1.5 1.2 1.5-1.2 1.6-1.3 5.7.2 5.7.1-1.5-1-1.5-1h4.5c2.5 0 6.8.6 9.5 1.4l5 1.3 5-1.5 5-1.4 4.8.5 4.8.4 1.5-1.4 1.4-1.4 1 .6 1 .6 3.9-1.2 4-1.2 1.6 1.7 1.6 1.6h4.7l.5 1.2.5 1.3.1-1.8c.1-2 1.7-2.3 2.4-.5l.5 1.3.1-1.3.1-1.3 2.1 1.2 2.1 1.1-.7-1.4c-.4-.7-1.9-2.8-3.3-4.7l-2.5-3.4-.8 2.1-.8 2.2h-4.9l-.6-1.5-.5-1.5 2.2-.1c1.2-.1 2.6-.1 3.1 0l.8.2-.6-1.6c-.3-.9-.6-1.9-.6-2.1s-.5-.4-1.1-.4-2.4-1.1-4-2.4l-2.8-2.4.7-.7.7-.8-1.4.8-1.4.8-1.4-1.8c-.7-1.1-1.3-1.5-1.3-1.1s-.7.1-1.5-.7l-1.5-1.5-2.1.5-2.2.6.8-1.2.8-1.3-2.2.7-2.1.6v-1.8l-2.6.5-2.7.5.6-1 .6-1-5.7.3-5.7.3 2.5-.8 2.5-.9-3.3-.1-3.3-.1.7 1.1.7 1.1-4.4-.6c-2.4-.4-11.1-.9-19.4-1l-15-.4zm-32.3 15.1-.4 3.3v-12l.4 2.7c.2 1.5.2 4.2 0 6zm-.7-14.7c0 .3.2.5.5.5s.5-.2.5-.5-.2-.5-.5-.5-.5.2-.5.5z"/><path d="M214 76.5c0 .3.2.5.5.5s.5-.2.5-.5-.2-.5-.5-.5-.5.2-.5.5zM113 90l-2.5.8 2.2.1c1.2.1 2.5-.4 2.8-.9.3-.6.5-1 .3-.9s-1.4.5-2.8.9zm-25 2.5c0 .3.2.5.5.5s.5-.2.5-.5-.2-.5-.5-.5-.5.2-.5.5zm2 .5c0 .5.5 1 1 1 .6 0 1-.5 1-1 0-.6-.4-1-1-1-.5 0-1 .4-1 1zm13-.5c0 .3.2.5.5.5s.5-.2.5-.5-.2-.5-.5-.5-.5.2-.5.5zm92.8 3.2c.7.3 1.6.2 1.9-.1.4-.3-.2-.6-1.3-.5l-1.9.1zm34.2-.2c0 .3.2.5.5.5s.5-.2.5-.5-.2-.5-.5-.5-.5.2-.5.5zm-39 1c0 .3.2.5.5.5s.5-.2.5-.5-.2-.5-.5-.5-.5.2-.5.5zM63.8 111.7c.7.3 1.6.2 1.9-.1.4-.3-.2-.6-1.3-.5l-1.9.1zm30.5 0 .7.6.7-.6.6-.7h-2.6zm3.7-.2c0 .3.2.5.5.5s.5-.2.5-.5-.2-.5-.5-.5-.5.2-.5.5zm14.3.2.7.6.7-.6.6-.7h-2.6zm-48.5 2c.7.3 1.6.2 1.9-.1.4-.3-.2-.6-1.3-.5l-1.9.1zm11.5 0 .7.6.7-.6.6-.7h-2.6zm14 0 .7.6.7-.6.6-.7h-2.6zM66 115.5c0 .3.2.5.5.5s.5-.2.5-.5-.2-.5-.5-.5-.5.2-.5.5zm-9.2 11.2c1.8.2 4.5.2 6 0l2.7-.4h-12z"/></g><g fill="#09a" stroke="#09a" stroke-width="1.3"><path d="M121.3 69.7c.9.2 2.5.2 3.5 0l1.7-.5h-7zm11 0c3.2.2 8.1.2 11 0l5.2-.3h-22zm29.5 0c1.2.2 3.2.2 4.5 0l2.2-.4h-9zm16.5 0c1.5.2 3.7.2 5 0l2.2-.4h-10zm16.7.8c0 .3.2.5.5.5s.5-.2.5-.5-.2-.5-.5-.5-.5.2-.5.5zm-78 1c0 .3.2.5.5.5s.5-.2.5-.5-.2-.5-.5-.5-.5.2-.5.5zm80.8.2c.6.2 1.8.2 2.5 0l1.2-.5h-5zm4.5 1 .7.6.7-.6.6-.7h-2.6zm3.5 1c.7.3 1.6.2 1.9-.1.4-.3-.2-.6-1.3-.5l-1.9.1zm-88.8.8c0 .3.2.5.5.5s.5-.2.5-.5-.2-.5-.5-.5-.5.2-.5.5zm94 1c0 .3.2.5.5.5s.5-.2.5-.5-.2-.5-.5-.5-.5.2-.5.5zm3.4 1.8c1 .6 3.1 2.2 4.6 3.4 1.5 1.3 3.4 2.3 4.2 2.3h1.4l.1 2c.1 1.1-.1 1.9-.5 1.9-.4-.1-1.7-.1-2.9 0l-2.2.1.5 1.5.6 1.5h4.9l.8-2.2.8-2.1 2.5 3.4c1.4 1.9 2.9 4 3.3 4.7l.7 1.4-2-1.1-2-1.1-.5 1.3-.5 1.2-.1-1.3c-.1-1.9-2.1-1.4-2.2.5l-.1 1.8-.5-1.3-.5-1.2h-4.7l-1.6-1.6-1.6-1.7-4 1.2-3.9 1.2-1-.6-1-.6-1.4 1.4-1.5 1.4-4.8-.4-4.8-.5-5 1.4-5 1.5-5-1.3c-2.7-.8-7-1.4-9.5-1.4h-4.5l1.5 1 1.5 1-5.7-.1-5.7-.2-1.6 1.3-1.5 1.2-1.5-1.2-1.5-1.3-5.5 1.8-5.5 1.7-4.2-.7c-2.4-.4-5.1-1.1-6-1.7l-1.8-.9v.9c0 .6-1 1.2-2.2 1.5l-2.1.6-2.8-1.5c-1.5-.7-3.3-1.4-3.9-1.4h-1v4.5l.9-1.3.8-1.4.8 1.9c.5 1 .7 2.2.6 2.6l-.1.8 37-.3 37-.3.3 1 .4 1h4.8l-.2 1.2-.3 1.2 1.5-.5 1.4-.6 2.9 2.1 2.9 2 .7-.6.7-.7-.7 1.8-.7 1.9 1-.6 1-.6 1.3 2.4 1.3 2.3 1.5-.5 1.5-.6-.6 1-.6 1h2.8l-.5-.9-.5-.8h3.6l-1.3-.8-1.3-.9 2.5-1.1 2.5-1.1 3.5.6 3.6.6V109h1.4c.8 0 1.6.7 2 1.5.3.8 1.2 1.5 2 1.5h1.5l.3-2.2.3-2.1 1.3-.5 1.2-.4v5l1.6.6c.9.3 1.8.6 2 .6 1.2 0-.7-7.1-3.2-12-1.6-3-2.9-6-2.9-6.6-.1-3.1-13.4-14.6-20-17.2l-3-1.2zM235 93.5c0 .3-.2.5-.5.5s-.5-.2-.5-.5.2-.5.5-.5.5.2.5.5zm-37.3 2.1c-.3.3-1.2.4-1.9.1l-1.3-.5 1.9-.1c1.1-.1 1.7.2 1.3.5zm33.3-.1c0 .3-.2.5-.5.5s-.5-.2-.5-.5.2-.5.5-.5.5.2.5.5zm-39 1c0 .3-.2.5-.5.5s-.5-.2-.5-.5.2-.5.5-.5.5.2.5.5zm22.5 16.5c.3.5.4 1 .1 1s-.8-.5-1.1-1c-.3-.6-.4-1-.1-1s.8.4 1.1 1zM117 78v1.3l.7-.6.6-.7-.6-.7-.7-.6zm.3 6.5v4l.4-2.3c.2-1.2.2-3 0-4l-.5-1.7zm-1.9 5.5-.9.9-8 .3-8 .3v3l7 .2c3.9.1 6.4 0 5.8-.3-.7-.3-1.3-1-1.3-1.5V92h4.8l1.2-1.5c1.4-1.7 1-2.1-.6-.5zM100 92.5c0 .3-.2.5-.5.5s-.5-.2-.5-.5.2-.5.5-.5.5.2.5.5zm4 0c0 .3-.2.5-.5.5s-.5-.2-.5-.5.2-.5.5-.5.5.2.5.5zm-17 .3v1.9l3.2-.1 3.1-.1.3-1.8.2-1.7H87zm2-.3c0 .3-.2.5-.5.5s-.5-.2-.5-.5.2-.5.5-.5.5.2.5.5zm3 .5c0 .5-.4 1-1 1-.5 0-1-.5-1-1 0-.6.5-1 1-1 .6 0 1 .4 1 1zm22.3 1.7.7.6.7-.6.6-.7h-2.6zM238 97.5c0 .3.2.5.5.5s.5-.2.5-.5-.2-.5-.5-.5-.5.2-.5.5zm1 2c0 .3.2.5.5.5s.5-.2.5-.5-.2-.5-.5-.5-.5.2-.5.5z"/><path d="M117 101.5c0 .3.2.5.5.5s.5-.2.5-.5-.2-.5-.5-.5-.5.2-.5.5zm74 2c0 .3.2.5.5.5s.5-.2.5-.5-.2-.5-.5-.5-.5.2-.5.5zm5 2c0 .3.2.5.5.5s.5-.2.5-.5-.2-.5-.5-.5-.5.2-.5.5zm4 2c0 .3.2.5.5.5s.5-.2.5-.5-.2-.5-.5-.5-.5.2-.5.5zm-103.7 4.2.5.8H72.5v3l14.1.3 14.1.3V113h-1.4c-.7 0-1.3-.5-1.3-1 0-.6-.5-1-1.1-1-.5 0-.8.3-.6.7zm-19.6 2-.7.6-.7-.6-.6-.7h2.6zm14 0-.7.6-.7-.6-.6-.7h2.6zm-16.7.8c0 .3-.2.5-.5.5s-.5-.2-.5-.5.2-.5.5-.5.5.2.5.5zm25 0c0 .3-.2.5-.5.5s-.5-.2-.5-.5.2-.5.5-.5.5.2.5.5zm0-3c0 .3.2.5.5.5s.5-.2.5-.5-.2-.5-.5-.5-.5.2-.5.5zm12 0c0 .3.2.5.5.5s.5-.2.5-.5-.2-.5-.5-.5-.5.2-.5.5zm30 0c0 .3.2.5.5.5s.5-.2.5-.5-.2-.5-.5-.5-.5.2-.5.5zM59.5 113c-1 1.6.4 3 3 3 3.4 0 5.5-1 5.5-2.6V112h-7.9zm6.2.6c-.3.3-1.2.4-1.9.1l-1.3-.5 1.9-.1c1.1-.1 1.7.2 1.3.5zm-4.7.9c0 .3-.2.5-.5.5s-.5-.2-.5-.5.2-.5.5-.5.5.2.5.5zm51.3-1.9-2.3.5v3.2l11.3-.6 11.3-.6 2.4-1 2.5-1h-5c-2.7-.1-7.9-.3-11.5-.5-3.6-.3-7.5-.2-8.7 0zM102 114v1.3l.7-.6.6-.7-.6-.7-.7-.6zm105 .5c0 .3.2.5.5.5s.5-.2.5-.5-.2-.5-.5-.5-.5.2-.5.5zm-99 1c0 .3.2.5.5.5s.5-.2.5-.5-.2-.5-.5-.5-.5.2-.5.5zm103 7c0 .3.2.5.5.5s.5-.2.5-.5-.2-.5-.5-.5-.5.2-.5.5zm-157.8 4.6 1 .7-1.3.4-1.4.5 4 1.2c2.2.6 5.9 1.1 8.1 1.1h4.2l1.2-1.5 1.2-1.5-1.8-.1-1.9-.1 3-.8 3-.7-10.1.1-10.2.1zm30.6-.4c1.2.2 3.2.2 4.5 0l2.2-.4h-9zm16.5 0c.9.2 2.3.2 3 0l1.2-.5h-6zm-21.3.8c0 .3.2.5.5.5s.5-.2.5-.5-.2-.5-.5-.5-.5.2-.5.5zm-30 1c0 .3.2.5.5.5s.5-.2.5-.5-.2-.5-.5-.5-.5.2-.5.5zm1 2c0 .3.2.5.5.5s.5-.2.5-.5-.2-.5-.5-.5-.5.2-.5.5z"/></g><path fill="#0ca" fill-opacity=".45" stroke="#0ca" stroke-opacity=".45" stroke-width="1.3" d="M191 69.5c0 .3.2.5.5.5s.5-.2.5-.5-.2-.5-.5-.5-.5.2-.5.5zm29 10c0 .3.2.5.5.5s.5-.2.5-.5-.2-.5-.5-.5-.5.2-.5.5zm8.5 6.5c1 1.1 2 2 2.3 2s-.3-.9-1.3-2-2-2-2.3-2 .3.9 1.3 2zm4 4c.3.5.8 1 1.1 1s.2-.5-.1-1c-.3-.6-.8-1-1.1-1s-.2.4.1 1zM114 95.5c0 .3.2.5.5.5s.5-.2.5-.5-.2-.5-.5-.5-.5.2-.5.5zm6.8 16.2c.6.2 1.8.2 2.5 0l1.2-.5h-5z"/><path fill="#80ffaa" fill-opacity=".45" stroke="#80ffaa" stroke-opacity=".45" stroke-width="1.3" d="M194 69.5c0 .3.2.5.5.5s.5-.2.5-.5-.2-.5-.5-.5-.5.2-.5.5z"/><path fill="#095" stroke="#095" stroke-width="1.3" d="M117.6 71.6c-.9 2.4-.2 2.6 1.2.4l1.2-2h-.9c-.5 0-1.2.7-1.5 1.6zm71.2-.9c1.2.2 3.2.2 4.5 0l2.2-.4h-9zM117 80v1.3l.7-.6.6-.7-.6-.7-.7-.6z"/><path fill="#0c5" stroke="#0c5" stroke-width="1.3" d="M121.8 70.7c1.2.2 3.2.2 4.5 0l2.2-.4h-9zm23.5 0c1.5.2 3.7.2 5 0l2.2-.4h-10zm33.7-.2c0 .3.2.5.5.5s.5-.2.5-.5-.2-.5-.5-.5-.5.2-.5.5zm3.3.2c.9.2 2.3.2 3 0l1.2-.5h-6z"/><path fill="#80ffff" fill-opacity=".45" stroke="#80ffff" stroke-opacity=".45" stroke-width="1.3" d="M200 70.5c0 .3.2.5.5.5s.5-.2.5-.5-.2-.5-.5-.5-.5.2-.5.5zm-108 25c0 .3.2.5.5.5s.5-.2.5-.5-.2-.5-.5-.5-.5.2-.5.5zm-29 21c0 .3.2.5.5.5s.5-.2.5-.5-.2-.5-.5-.5-.5.2-.5.5z"/><path fill="#80ccaa" fill-opacity=".45" stroke="#80ccaa" stroke-opacity=".45" stroke-width="1.3" d="M214 75.5c0 .3.2.5.5.5s.5-.2.5-.5-.2-.5-.5-.5-.5.2-.5.5zm-127 15c0 .3.2.5.5.5s.5-.2.5-.5-.2-.5-.5-.5-.5.2-.5.5zm6 0c0 .3.2.5.5.5s.5-.2.5-.5-.2-.5-.5-.5-.5.2-.5.5zm6 0c0 .3.2.5.5.5s.5-.2.5-.5-.2-.5-.5-.5-.5.2-.5.5zM97 93v1.3l.7-.6.6-.7-.6-.7-.7-.6zm-11 1.5c0 .3.2.5.5.5s.5-.2.5-.5-.2-.5-.5-.5-.5.2-.5.5zm13 1c0 .3.2.5.5.5s.5-.2.5-.5-.2-.5-.5-.5-.5.2-.5.5zm-32 16c0 .3.2.5.5.5s.5-.2.5-.5-.2-.5-.5-.5-.5.2-.5.5zm40 1c0 .3.2.5.5.5s.5-.2.5-.5-.2-.5-.5-.5-.5.2-.5.5zM58 114v1.3l.7-.6.6-.7-.6-.7-.7-.6zm45 .5c0 .3.2.5.5.5s.5-.2.5-.5-.2-.5-.5-.5-.5.2-.5.5zm4 1c0 .3.2.5.5.5s.5-.2.5-.5-.2-.5-.5-.5-.5.2-.5.5zm2 1c0 .3.2.5.5.5s.5-.2.5-.5-.2-.5-.5-.5-.5.2-.5.5zm32 0c0 .3.2.5.5.5s.5-.2.5-.5-.2-.5-.5-.5-.5.2-.5.5zm-63 12c0 .3.2.5.5.5s.5-.2.5-.5-.2-.5-.5-.5-.5.2-.5.5zm-29 2c0 .3.2.5.5.5s.5-.2.5-.5-.2-.5-.5-.5-.5.2-.5.5zm25 12c0 .3.2.5.5.5s.5-.2.5-.5-.2-.5-.5-.5-.5.2-.5.5zm0 2c0 .3.2.5.5.5s.5-.2.5-.5-.2-.5-.5-.5-.5.2-.5.5zm-4 1c0 .3.2.5.5.5s.5-.2.5-.5-.2-.5-.5-.5-.5.2-.5.5z"/><path fill="#09a" fill-opacity=".45" stroke="#09a" stroke-opacity=".45" stroke-width="1.3" d="M223 81.5c0 .3.2.5.5.5s.5-.2.5-.5-.2-.5-.5-.5-.5.2-.5.5zm8 7c0 .3.2.5.5.5s.5-.2.5-.5-.2-.5-.5-.5-.5.2-.5.5zm5 6c0 .3.2.5.5.5s.5-.2.5-.5-.2-.5-.5-.5-.5.2-.5.5zm5 8c0 .3.2.5.5.5s.5-.2.5-.5-.2-.5-.5-.5-.5.2-.5.5zm1 2c0 .3.2.5.5.5s.5-.2.5-.5-.2-.5-.5-.5-.5.2-.5.5zm-110.2 7.2c1.7.2 4.7.2 6.5 0l3.2-.4h-13zm10.2-.2c0 .3.2.5.5.5s.5-.2.5-.5-.2-.5-.5-.5-.5.2-.5.5zm2 1c0 .3.2.5.5.5s.5-.2.5-.5-.2-.5-.5-.5-.5.2-.5.5zm102 3c0 .3.2.5.5.5s.5-.2.5-.5-.2-.5-.5-.5-.5.2-.5.5zm1 4c0 .3.2.5.5.5s.5-.2.5-.5-.2-.5-.5-.5-.5.2-.5.5zm-166 7c0 .3.2.5.5.5s.5-.2.5-.5-.2-.5-.5-.5-.5.2-.5.5zm131 1c0 .3.2.5.5.5s.5-.2.5-.5-.2-.5-.5-.5-.5.2-.5.5zm36 1c0 .3.2.5.5.5s.5-.2.5-.5-.2-.5-.5-.5-.5.2-.5.5zm-176 2c0 .3.2.5.5.5s.5-.2.5-.5-.2-.5-.5-.5-.5.2-.5.5z"/><g fill="#06a" stroke="#06a" stroke-width="1.3"><path d="M224 83.5c0 .3.2.5.5.5s.5-.2.5-.5-.2-.5-.5-.5-.5.2-.5.5zm9 8c0 .3.2.5.5.5s.5-.2.5-.5-.2-.5-.5-.5-.5.2-.5.5zm-134 1c0 .3.2.5.5.5s.5-.2.5-.5-.2-.5-.5-.5-.5.2-.5.5zm138.6 7 3.7 7 .4 3.4.4 3.3-1.6-.6c-.9-.3-1.9-.6-2.1-.6s-.4-1.2-.4-2.6v-2.6l-1.2.4-1.3.5-.3 2.1-.3 2.2h-1.5c-.8 0-1.7-.7-2-1.5-.4-.8-1.2-1.5-2-1.5H228v3.3l-3.6-.6c-4.2-.7-6.4 0-6.4 1.9v1.4h-3.1l.7 1.2.7 1.1-1.1-.7-1.1-.6-1 1.7-1 1.8-.1-1.1c0-.5.6-1.6 1.3-2.3l1.2-1.4-1.6.6-1.6.5-1.3-2.3-1.3-2.4-1 .6-1 .6.7-1.9.7-1.8-.7.7-.7.7-1.1-.9c-2.2-1.8-8.7-5.1-9.9-5.1-.7.1.2.8 1.8 1.7 6.7 3.5 14.5 13.8 14.5 19.2 0 1.1.5 2.3 1 2.6l1 .6-.1 5.2v5.2l-1-2-.9-2 .5 3.3.5 3.3-.9-.5-.8-.5-1.1 2.3-1 2.3h2.6l-.5-1.6-.5-1.6 1.2 1.8c.6.9.9 2.1.6 2.5l-.5.8 5.2.3c2.9.2 7.5.5 10.2.7 2.8.3 6.7.4 8.7.4h3.7l1.1 1.7 1.1 1.8-.6-2.5-.6-2.5 1.4 1.7 1.3 1.7 2-2.2 1.9-2.2.3-11.5.4-11.5-1.7-6.5-1.6-6.5-3.6-6.5c-1.9-3.6-4.4-7.4-5.4-8.5l-2-2zm-15.9 24.2-.7.6-.7-.6-.6-.7h2.6zm-1 6.5-.5 1.3-.1-1.9c-.1-1.1.2-1.7.5-1.3.3.3.4 1.2.1 1.9zm-4.7 12.3c0 .3-.2.5-.5.5s-.5-.2-.5-.5.2-.5.5-.5.5.2.5.5zm25 2c0 .3-.2.5-.5.5s-.5-.2-.5-.5.2-.5.5-.5.5.2.5.5zm-153-50c0 .3.2.5.5.5s.5-.2.5-.5-.2-.5-.5-.5-.5.2-.5.5zm12 0c0 .3.2.5.5.5s.5-.2.5-.5-.2-.5-.5-.5-.5.2-.5.5zm17 4.5v1.3l.7-.6.6-.7-.6-.7-.7-.6zm1 2.5c0 .3.2.5.5.5s.5-.2.5-.5-.2-.5-.5-.5-.5.2-.5.5zm70 .9c0 .2 1.1.6 2.5.8l2.5.5V102h-2.5c-1.4 0-2.5.2-2.5.4zm-92 10.1c0 .3.2.5.5.5s.5-.2.5-.5-.2-.5-.5-.5-.5.2-.5.5zm3.3.2 1.7.5-.5.8c-.3.5-.1 1.1.5 1.5l1 .6V112l-2.2.1-2.3.1zm9.5 1.5.6 2.3.4-1.7.3-1.7 2.2-.4 2.2-.4-3.2-.2-3.1-.1zM130 113l7.5.5-3.5.8c-1.9.3-4.6.8-6 1-1.4.3 1.4.5 6.1.6l8.7.1.6-1.6c.3-.9.6-1.8.6-2s-4.8-.3-10.7-.2l-10.8.2z"/><path d="M213.5 113c.3.5.8 1 1.1 1s.2-.5-.1-1c-.3-.6-.8-1-1.1-1s-.2.4.1 1zM60 114.5c0 .3.2.5.5.5s.5-.2.5-.5-.2-.5-.5-.5-.5.2-.5.5zm13 0c0 .3.2.5.5.5s.5-.2.5-.5-.2-.5-.5-.5-.5.2-.5.5zm25 0c0 .3.2.5.5.5s.5-.2.5-.5-.2-.5-.5-.5-.5.2-.5.5zM85 127l-5.5.5v3l42.2.2 42.2.2.7-1.1.7-1.1-1 .6-1.1.7-.5-2-.5-2.1-35.9.3c-19.7.1-38.3.5-41.3.8zm-34.9 1.5.4 2 4 .2 4 .2-2.8-.9c-1.6-.5-3.5-1.4-4.4-2.1l-1.5-1.3z"/><path d="m52.3 127.7.7.6.7-.6.6-.7h-2.6zm16 0 1.8.5-1.2 1.4-1.1 1.4H72v-4l-2.7.1-2.8.1zM64 143.5v2.5h3.8l.6-1.6c.3-.9.6-2 .6-2.5v-.9h-5zm12.8 0 .4 2.5h13.9l-.6-.9-.5-.9 1.7-.5 1.8-.5-2-.1-2-.1 1.5-1 1.5-1H76.3zm2.7-.5c.3.5.4 1 .1 1s-.8-.5-1.1-1c-.3-.6-.4-1-.1-1s.8.4 1.1 1zm41.8-1.3c9.2.2 24.2.2 33.5 0 9.2-.1 1.6-.3-16.8-.3s-26 .2-16.7.3zm-51.6 2.2-.6 2.4 1.1-1.1c.5-.5.8-1.6.6-2.3l-.4-1.3zm103.3-1.4c0 .3.2.5.5.5s.5-.2.5-.5-.2-.5-.5-.5-.5.2-.5.5zm-111 1c0 .3.2.5.5.5s.5-.2.5-.5-.2-.5-.5-.5-.5.2-.5.5zm40 0c0 .3.2.5.5.5s.5-.2.5-.5-.2-.5-.5-.5-.5.2-.5.5zm69 0c0 .3.2.5.5.5s.5-.2.5-.5-.2-.5-.5-.5-.5.2-.5.5zm-56.2 2.2c.7.3 1.6.2 1.9-.1.4-.3-.2-.6-1.3-.5l-1.9.1zm30.4 0c4.8.2 12.9.2 18 0l9.3-.3h-18c-9.9 0-14.1.2-9.3.3zm61.8 1.8c0 .3.2.5.5.5s.5-.2.5-.5-.2-.5-.5-.5-.5.2-.5.5zm38 3c0 .3.2.5.5.5s.5-.2.5-.5-.2-.5-.5-.5-.5.2-.5.5zm-1 3c0 .3.2.5.5.5s.5-.2.5-.5-.2-.5-.5-.5-.5.2-.5.5zm-46 2c0 .3.2.5.5.5s.5-.2.5-.5-.2-.5-.5-.5-.5.2-.5.5zm-5 2c0 .3.2.5.5.5s.5-.2.5-.5-.2-.5-.5-.5-.5.2-.5.5zm46 6c0 .3.2.5.5.5s.5-.2.5-.5-.2-.5-.5-.5-.5.2-.5.5z"/></g><path fill="#40ffff" fill-opacity=".45" stroke="#40ffff" stroke-opacity=".45" stroke-width="1.3" d="M114 89.5c0 .3.2.5.5.5s.5-.2.5-.5-.2-.5-.5-.5-.5.2-.5.5zm-1.7 6.2.7.6.7-.6.6-.7h-2.6z"/><path fill="#40ccff" fill-opacity=".45" stroke="#40ccff" stroke-opacity=".45" stroke-width="1.3" d="M102 90.5c0 .3.2.5.5.5s.5-.2.5-.5-.2-.5-.5-.5-.5.2-.5.5zm133 2c0 .3.2.5.5.5s.5-.2.5-.5-.2-.5-.5-.5-.5.2-.5.5zm-145 3c0 .3.2.5.5.5s.5-.2.5-.5-.2-.5-.5-.5-.5.2-.5.5zm15.3.2c1.5.2 3.7.2 5 0l2.2-.4h-10zm132.7.8c0 .3.2.5.5.5s.5-.2.5-.5-.2-.5-.5-.5-.5.2-.5.5zm-50 7c0 .3.2.5.5.5s.5-.2.5-.5-.2-.5-.5-.5-.5.2-.5.5zm7 2c0 .3.2.5.5.5s.5-.2.5-.5-.2-.5-.5-.5-.5.2-.5.5zm2 1c0 .3.2.5.5.5s.5-.2.5-.5-.2-.5-.5-.5-.5.2-.5.5zm2 1c0 .3.2.5.5.5s.5-.2.5-.5-.2-.5-.5-.5-.5.2-.5.5zm3 2c0 .3.2.5.5.5s.5-.2.5-.5-.2-.5-.5-.5-.5.2-.5.5zm2 2c0 .3.2.5.5.5s.5-.2.5-.5-.2-.5-.5-.5-.5.2-.5.5zm-126 5c0 .3.2.5.5.5s.5-.2.5-.5-.2-.5-.5-.5-.5.2-.5.5zm18.8.2c.7.3 1.6.2 1.9-.1.4-.3-.2-.6-1.3-.5l-1.9.1zm14.2-.2c0 .3.2.5.5.5s.5-.2.5-.5-.2-.5-.5-.5-.5.2-.5.5zm98 2c0 .3.2.5.5.5s.5-.2.5-.5-.2-.5-.5-.5-.5.2-.5.5zm1 2c0 .3.2.5.5.5s.5-.2.5-.5-.2-.5-.5-.5-.5.2-.5.5zm38 4.5v1.3l.7-.6.6-.7-.6-.7-.7-.6zm-37 13.5c0 .3.2.5.5.5s.5-.2.5-.5-.2-.5-.5-.5-.5.2-.5.5z"/><path fill="#40ccaa" stroke="#40ccaa" stroke-width="1.3" d="M98 91.5c0 .3.2.5.5.5s.5-.2.5-.5-.2-.5-.5-.5-.5.2-.5.5zM86 93v1.3l.7-.6.6-.7-.6-.7-.7-.6zm7 1.5c0 .3.2.5.5.5s.5-.2.5-.5-.2-.5-.5-.5-.5.2-.5.5zm0 17c0 .3.2.5.5.5s.5-.2.5-.5-.2-.5-.5-.5-.5.2-.5.5z"/><path fill="#065" stroke="#065" stroke-width="1.3" d="M93 92.5c0 .3.2.5.5.5s.5-.2.5-.5-.2-.5-.5-.5-.5.2-.5.5zm24 7.9c0 .2.7.7 1.6 1l1.5.6-.6-1c-.6-1-2.5-1.4-2.5-.6zm-9 13.6v1.3l.7-.6.6-.7-.6-.7-.7-.6zm35.7-.3c-.4.3-.7 1.1-.7 1.7v1l1.2-1.2c.6-.6.9-1.4.7-1.7-.3-.3-.9-.2-1.2.2zM51 127.5c0 .3.2.5.5.5s.5-.2.5-.5-.2-.5-.5-.5-.5.2-.5.5zm21.1 1.1.1 1.9.5-1.3c.3-.7.2-1.6-.1-1.9-.3-.4-.6.2-.5 1.3zm90.6.5-.5 2 1.4-1.2 1.4-1.1-.6-.9c-.8-1.3-1.1-1.1-1.7 1.2zm50.4.5.1 1.9.5-1.3c.3-.7.2-1.6-.1-1.9-.3-.4-.6.2-.5 1.3zM92 141.5c0 .3.2.5.5.5s.5-.2.5-.5-.2-.5-.5-.5-.5.2-.5.5zm12 0c0 .3.2.5.5.5s.5-.2.5-.5-.2-.5-.5-.5-.5.2-.5.5zm67 0c0 .3.2.5.5.5s.5-.2.5-.5-.2-.5-.5-.5-.5.2-.5.5zm-107.9 2.1.1 1.9.5-1.3c.3-.7.2-1.6-.1-1.9-.3-.4-.6.2-.5 1.3zm5.5 0c-.4.9-.4 1.9-.1 2.2.2.3.7-.3 1.1-1.2s.4-1.9.1-2.2c-.2-.3-.7.3-1.1 1.2zm6.8-.2c.1.8.5 1.8.8 2.2.4.3.5-.1.4-1-.1-.8-.5-1.8-.8-2.2-.4-.3-.5.1-.4 1zm15.9 2.3.7.6.7-.6.6-.7h-2.6z"/><path fill="#80ccff" fill-opacity=".45" stroke="#80ccff" stroke-opacity=".45" stroke-width="1.3" d="m88.3 95.7.7.6.7-.6.6-.7h-2.6zm2.7-.2c0 .3.2.5.5.5s.5-.2.5-.5-.2-.5-.5-.5-.5.2-.5.5zm116 20c0 .3.2.5.5.5s.5-.2.5-.5-.2-.5-.5-.5-.5.2-.5.5zm-145.7 1.2.7.6.7-.6.6-.7h-2.6zm15.7-.2c0 .3.2.5.5.5s.5-.2.5-.5-.2-.5-.5-.5-.5.2-.5.5zm3.3.2.7.6.7-.6.6-.7h-2.6zm12 0c.9.2 2.3.2 3 0l1.2-.5h-6zm7.5 0c.7.3 1.6.2 1.9-.1.4-.3-.2-.6-1.3-.5l-1.9.1zm10.2-.2c0 .3.2.5.5.5s.5-.2.5-.5-.2-.5-.5-.5-.5.2-.5.5zm9.3.2c4.3.2 11 .2 15 0l7.2-.3h-30zm22.7-.2c0 .3.2.5.5.5s.5-.2.5-.5-.2-.5-.5-.5-.5.2-.5.5zm69 8c0 .3.2.5.5.5s.5-.2.5-.5-.2-.5-.5-.5-.5.2-.5.5zm-132 2c0 .3.2.5.5.5s.5-.2.5-.5-.2-.5-.5-.5-.5.2-.5.5zm85 0c0 .3.2.5.5.5s.5-.2.5-.5-.2-.5-.5-.5-.5.2-.5.5zm0 4c0 .3.2.5.5.5s.5-.2.5-.5-.2-.5-.5-.5-.5.2-.5.5zm-111.7 1.2.7.6.7-.6.6-.7h-2.6zm31.7-.2c0 .3.2.5.5.5s.5-.2.5-.5-.2-.5-.5-.5-.5.2-.5.5zm125 12c0 .3.2.5.5.5s.5-.2.5-.5-.2-.5-.5-.5-.5.2-.5.5z"/><path fill="#4099aa" stroke="#4099aa" stroke-width="1.3" d="M190 103.5c0 .3.2.5.5.5s.5-.2.5-.5-.2-.5-.5-.5-.5.2-.5.5zm-90 8c0 .3.2.5.5.5s.5-.2.5-.5-.2-.5-.5-.5-.5.2-.5.5zm-28 1c0 .3.2.5.5.5s.5-.2.5-.5-.2-.5-.5-.5-.5.2-.5.5zm30 0c0 .3.2.5.5.5s.5-.2.5-.5-.2-.5-.5-.5-.5.2-.5.5zm5 1c0 .3.2.5.5.5s.5-.2.5-.5-.2-.5-.5-.5-.5.2-.5.5z"/><path fill="#4099aa" fill-opacity=".45" stroke="#4099aa" stroke-opacity=".45" stroke-width="1.3" d="M244 108.5c0 .3.2.5.5.5s.5-.2.5-.5-.2-.5-.5-.5-.5.2-.5.5zm-134.7 3.2.7.6.7-.6.6-.7h-2.6zm16.5 0c.6.2 1.8.2 2.5 0l1.2-.5h-5zm17.2-.2c0 .3.2.5.5.5s.5-.2.5-.5-.2-.5-.5-.5-.5.2-.5.5zm102 0c0 .3.2.5.5.5s.5-.2.5-.5-.2-.5-.5-.5-.5.2-.5.5zm-186 1c0 .3.2.5.5.5s.5-.2.5-.5-.2-.5-.5-.5-.5.2-.5.5zm146.5.5c.3.5.8 1 1.1 1s.2-.5-.1-1c-.3-.6-.8-1-1.1-1s-.2.4.1 1zm-98.5 1.5c0 .3.2.5.5.5s.5-.2.5-.5-.2-.5-.5-.5-.5.2-.5.5zm37 1c0 .3.2.5.5.5s.5-.2.5-.5-.2-.5-.5-.5-.5.2-.5.5zm67 8c0 .3.2.5.5.5s.5-.2.5-.5-.2-.5-.5-.5-.5.2-.5.5zm-48 3c0 .3.2.5.5.5s.5-.2.5-.5-.2-.5-.5-.5-.5.2-.5.5zm85 .5v1.3l.7-.6.6-.7-.6-.7-.7-.6zm-36 2v1.3l.7-.6.6-.7-.6-.7-.7-.6zm-163 .5c0 .3.2.5.5.5s.5-.2.5-.5-.2-.5-.5-.5-.5.2-.5.5zm24 0c0 .3.2.5.5.5s.5-.2.5-.5-.2-.5-.5-.5-.5.2-.5.5zm6 1c0 .3.2.5.5.5s.5-.2.5-.5-.2-.5-.5-.5-.5.2-.5.5zm133 3c0 .3.2.5.5.5s.5-.2.5-.5-.2-.5-.5-.5-.5.2-.5.5zm36 4.5v1.3l.7-.6.6-.7-.6-.7-.7-.6zm-173 3.5c0 .3.2.5.5.5s.5-.2.5-.5-.2-.5-.5-.5-.5.2-.5.5zm-1 2c0 .3.2.5.5.5s.5-.2.5-.5-.2-.5-.5-.5-.5.2-.5.5zm-12 1c0 .3.2.5.5.5s.5-.2.5-.5-.2-.5-.5-.5-.5.2-.5.5zm32 0c0 .3.2.5.5.5s.5-.2.5-.5-.2-.5-.5-.5-.5.2-.5.5zm145 20c0 .3.2.5.5.5s.5-.2.5-.5-.2-.5-.5-.5-.5.2-.5.5z"/><path fill="#09f" stroke="#09f" stroke-width="1.3" d="m216.3 113.7.7.6.7-.6.6-.7h-2.6zm-4.3 3.8c0 .3.2.5.5.5s.5-.2.5-.5-.2-.5-.5-.5-.5.2-.5.5z"/><path fill="#06f" stroke="#06f" stroke-width="1.3" d="M212 118.5c0 .3.2.5.5.5s.5-.2.5-.5-.2-.5-.5-.5-.5.2-.5.5zm8.3 5.2.7.6.7-.6.6-.7h-2.6zm-.2 5.9.1 1.9.5-1.3c.3-.7.2-1.6-.1-1.9-.3-.4-.6.2-.5 1.3zm-5.1 12.9c0 .3.2.5.5.5s.5-.2.5-.5-.2-.5-.5-.5-.5.2-.5.5zm-136 1c0 .3.2.5.5.5s.5-.2.5-.5-.2-.5-.5-.5-.5.2-.5.5zm161 1c0 .3.2.5.5.5s.5-.2.5-.5-.2-.5-.5-.5-.5.2-.5.5z"/><path fill="#4066aa" stroke="#4066aa" stroke-width="1.3" d="M162 126.5c0 .3.2.5.5.5s.5-.2.5-.5-.2-.5-.5-.5-.5.2-.5.5zm2 1c0 .3.2.5.5.5s.5-.2.5-.5-.2-.5-.5-.5-.5.2-.5.5zm9.2 72.5v2.5l.5-1.3c.2-.6.2-1.8 0-2.5l-.5-1.2z"/><path fill="#06a" fill-opacity=".45" stroke="#06a" stroke-opacity=".45" stroke-width="1.3" d="M73 128.5c0 .3.2.5.5.5s.5-.2.5-.5-.2-.5-.5-.5-.5.2-.5.5zm175.3 4.5v4.5l.4-2.3c.2-1.2.2-3.2 0-4.5l-.4-2.2zm-36.3 1.5c0 .3.2.5.5.5s.5-.2.5-.5-.2-.5-.5-.5-.5.2-.5.5zm-1 5c0 .3.2.5.5.5s.5-.2.5-.5-.2-.5-.5-.5-.5.2-.5.5zm-39 2c0 .3.2.5.5.5s.5-.2.5-.5-.2-.5-.5-.5-.5.2-.5.5zm75 2c0 .3.2.5.5.5s.5-.2.5-.5-.2-.5-.5-.5-.5.2-.5.5zm-74.6 1.7-.7 1.1 1.1-.7c1.2-.7 1.6-1.6.8-1.6-.3 0-.8.5-1.2 1.2zm73.6 2.3c0 .3.2.5.5.5s.5-.2.5-.5-.2-.5-.5-.5-.5.2-.5.5zm-1 4c0 .3.2.5.5.5s.5-.2.5-.5-.2-.5-.5-.5-.5.2-.5.5zm-2 5c0 .3.2.5.5.5s.5-.2.5-.5-.2-.5-.5-.5-.5.2-.5.5zm-54 2c0 .3.2.5.5.5s.5-.2.5-.5-.2-.5-.5-.5-.5.2-.5.5zm53 0c0 .3.2.5.5.5s.5-.2.5-.5-.2-.5-.5-.5-.5.2-.5.5zm-1 2c0 .3.2.5.5.5s.5-.2.5-.5-.2-.5-.5-.5-.5.2-.5.5zm-3 5c0 .3.2.5.5.5s.5-.2.5-.5-.2-.5-.5-.5-.5.2-.5.5zm-2 3c0 .3.2.5.5.5s.5-.2.5-.5-.2-.5-.5-.5-.5.2-.5.5zm-5.1 6.2-1.4 1.8 1.8-1.4c1.6-1.3 2.1-2.1 1.3-2.1-.2 0-1 .8-1.7 1.7z"/><path fill="#4099ff" fill-opacity=".45" stroke="#4099ff" stroke-opacity=".45" stroke-width="1.3" d="M212 132v1.3l.7-.6.6-.7-.6-.7-.7-.6zm-2 9.5c0 .3.2.5.5.5s.5-.2.5-.5-.2-.5-.5-.5-.5.2-.5.5zm37 3c0 .3.2.5.5.5s.5-.2.5-.5-.2-.5-.5-.5-.5.2-.5.5z"/><path fill="#005" stroke="#005" stroke-width="1.3" d="M213.2 133v2.5l.5-1.3c.2-.6.2-1.8 0-2.5l-.5-1.2zm-137.7 9.9-.5 1 .8.5.9.5v-1.4c0-1.7-.3-1.9-1.2-.6zm16.8.6c0 .8.4 1.5.9 1.5.4 0 .8-.7.8-1.5s-.4-1.5-.8-1.5c-.5 0-.9.7-.9 1.5zm10.7-.1c0 .8.5 1.8 1.1 2.1l1 .7.7-.7.6-.6-1.3-.8-1.3-.9 1.3-.5 1.4-.5-1.7-.1-1.8-.1zm68.6.1-.5 1.5h.9c.5 0 1.1-.4 1.5-.9l.5-1-.9-.5-.9-.6zm-45.3 2.2c.9.2 2.5.2 3.5 0l1.7-.5h-7zm80.7 2.8c-.7.9-1.1 1.7-.9 2 .3.2 1-.5 1.7-1.5 1.4-2.4 1-2.6-.8-.5zm38 .5v1.3l.7-.6.6-.7-.6-.7-.7-.6zm-45.4 5.6c-5 3.6-5.4 4.4-.8 2 2.3-1.2 7.3-5.7 6.1-5.5-.2 0-2.6 1.6-5.3 3.5zm43.5-.5c-.6 1.8-.9 3.4-.7 3.6s.9-1 1.5-2.8.9-3.4.7-3.6-.9 1-1.5 2.8zm-51.3 4.6c.7.3 1.6.2 1.9-.1.4-.3-.2-.6-1.3-.5l-1.9.1zm-108.1.9c-.4.4-.7 1.3-.7 2.1v1.3h7.1l-.3-1.8-.3-1.7-2.5-.3c-1.4-.2-2.9 0-3.3.4zm4 2c-.3.3-1.2.4-1.9.1l-1.3-.5 1.9-.1c1.1-.1 1.7.2 1.3.5zm11.6-1.9c.9.2 2.3.2 3 0l1.2-.5h-6zm6.8-.3c.3.3 5.6.6 11.8.8l11.3.3.4.7.5.8-10.3.2-10.3.2 9.5.4c5.2.1 10.6 0 12-.3l2.5-.7-1.9-1.4-2-1.4h-12c-6.5 0-11.7.2-11.5.4zm34.4.7c-.4.6-.9 3-1.1 5.5l-.4 4.4h2.3l-.6-3.4-.5-3.4 1.1-1.6 1.2-1.6 24-.3 24-.2-24.7-.3-24.7-.2zm99.9.1c-.4.7-1.4 2.4-2.2 3.8l-1.4 2.5 1.7-2c2-2.4 3.7-5.5 3.1-5.5-.3 0-.8.6-1.2 1.2zm-145.1.5.7.6.7-.6.6-.7h-2.6zm2.4 2c1.8.2 5 .2 7 0l3.8-.4h-14zm137.7 5.5-.7 1.1 1.1-.7c1.2-.7 1.6-1.6.8-1.6-.3 0-.8.5-1.2 1.2zm-6.4 6.9c-3.8 4.5-3.8 4.7.3 1 2-1.9 3.7-3.6 3.7-3.8 0-1-1.8.3-4 2.8zm-5.6 5.1-.7 1.1 1.1-.7c1.2-.7 1.6-1.6.8-1.6-.3 0-.8.5-1.2 1.2zm-6.8 3.6c-2.8 1.4-8.4 3.7-12.5 4.9l-7.6 2.4 4.4-.6c5.2-.7 18.4-6 20.2-8.1 1.5-1.8 1.3-1.8-4.5 1.4zm-38.8 7.9c1.2.2 3.2.2 4.5 0l2.2-.4h-9zm10.5 0c1.5.2 3.9.2 5.5 0l2.7-.4h-11zm-15.3 2.2-1 2 .1 4.8.2 4.8.6-5.5c.3-3 1-6.1 1.4-6.8.5-.6.6-1.2.3-1.2s-1 .9-1.6 1.9z"/><path fill="#00a" stroke="#00a" stroke-width="1.3" d="m213.1 136.6.1 1.9.5-1.3c.3-.7.2-1.6-.1-1.9-.3-.4-.6.2-.5 1.3zM212 140v1.3l.7-.6.6-.7-.6-.7-.7-.6zm-134 2.5c0 .3.2.5.5.5s.5-.2.5-.5-.2-.5-.5-.5-.5.2-.5.5zm12.3.2.7.6.7-.6.6-.7h-2.6zm15 0-1.3.5 1.3 1.3 1.4 1.3 15.4-.3c8.5-.1 22.9-.3 32-.4l16.7-.1.6-1.5.5-1.5-32.7.1c-18 0-33.3.3-33.9.6zm104.7 1.6c-.8 1.2-1.5 2.4-1.5 2.7-.1.9-2.4 4.5-2.5 3.8 0-.3-1.6 1-3.5 2.9l-3.5 3.5-1.6-.6-1.5-.6.7 1.2.7 1.1-1.6-.6-1.7-.6v2.1l-2-.5-2-.5v1.8h-47.9l-.6 1.1c-.4.6-.8 4.3-1 8.2-.2 4-.1 6.5.2 5.7 1-2.5 2.7-3.6 5.3-3.6h2.5l1.2 1.6 1.2 1.6 4 1.2 4 1.2 3 3 2.9 3h2.4c1.3 0 3.3.3 4.5.6l2.2.6.6 2.9.7 3-1.4 1.6-1.3 1.6 2-1 2-1.1 9.5-.1 9.5-.1 7.3-2 7.3-2 1.2.6 1.2.7-.8-.8-.7-.9 4.6-2.3c2.5-1.3 5-2.1 5.4-1.8l.9.6 1.1-2.1 1.1-2.1 1 .6.9.6v-.9c0-1.1 5-6.3 7.6-7.8 1-.6 1.9-1.6 1.9-2.3 0-.6.5-1.5 1-1.9.6-.4 1.1-1.3 1.3-2.1s1.1-2.6 2.1-4 2.3-4 2.8-5.6c.6-1.7 1.4-3.9 1.9-5l.7-2-.8.7-.8.8-1.4-1.8-1.4-1.7.6 2.5.6 2.5-1.1-1.8-1.1-1.7h-3.7c-2 0-5.9-.1-8.7-.4-2.7-.2-7.3-.5-10.2-.7l-5.2-.3.5-.8c.3-.4.1-1.5-.3-2.3l-.9-1.4zm2 .2c0 .3-.2.5-.5.5s-.5-.2-.5-.5.2-.5.5-.5.5.2.5.5zm-4 8c0 .3-.2.5-.5.5s-.5-.2-.5-.5.2-.5.5-.5.5.2.5.5zm28 10.4c0 1.1-.4 2.3-1 2.6l-1 .6V161h2zm-92 3.6c0 .3-.2.5-.5.5s-.5-.2-.5-.5.2-.5.5-.5.5.2.5.5zm78 15c0 .3-.2.5-.5.5s-.5-.2-.5-.5.2-.5.5-.5.5.2.5.5zM90.3 144.7l.7.6.7-.6.6-.7h-2.6zm154.7 2.8c0 .3.2.5.5.5s.5-.2.5-.5-.2-.5-.5-.5-.5.2-.5.5zM96.7 160.7l-.5.8 17 .3 17 .4-.5-.9-.6-.9-15.9-.3-16-.2zm-11.7.8c0 .3.2.5.5.5s.5-.2.5-.5-.2-.5-.5-.5-.5.2-.5.5zm23.3 1.2.7.6.7-.6.6-.7h-2.6zm93.7 27.8c0 .3.2.5.5.5s.5-.2.5-.5-.2-.5-.5-.5-.5.2-.5.5zm-30 4c0 .3.2.5.5.5s.5-.2.5-.5-.2-.5-.5-.5-.5.2-.5.5z"/><path fill="#4066aa" fill-opacity=".45" stroke="#4066aa" stroke-opacity=".45" stroke-width="1.3" d="m62.4 142.2-.7 1.1 1.1-.7c1.2-.7 1.6-1.6.8-1.6-.3 0-.8.5-1.2 1.2zm6.6-.7c0 .3.2.5.5.5s.5-.2.5-.5-.2-.5-.5-.5-.5.2-.5.5zm24.6.8c.3 1 .9 1.5 1.2 1.2s0-1.1-.7-1.8l-1.2-1.2zm8.8-.1-.7 1.1 1.1-.7c1.2-.7 1.6-1.6.8-1.6-.3 0-.8.5-1.2 1.2zm.1 2.8c.3.5.8 1 1.1 1s.2-.5-.1-1c-.3-.6-.8-1-1.1-1s-.2.4.1 1zm-39.5.5c0 .3.2.5.5.5s.5-.2.5-.5-.2-.5-.5-.5-.5.2-.5.5zm12 0c0 .3.2.5.5.5s.5-.2.5-.5-.2-.5-.5-.5-.5.2-.5.5zm18 0c0 .3.2.5.5.5s.5-.2.5-.5-.2-.5-.5-.5-.5.2-.5.5zm112.4 3.7-.7 1.1 1.1-.7c.7-.4 1.2-.9 1.2-1.2 0-.8-.9-.4-1.6.8zm40.6-.7c0 .3.2.5.5.5s.5-.2.5-.5-.2-.5-.5-.5-.5.2-.5.5zm-44 4c0 .3.2.5.5.5s.5-.2.5-.5-.2-.5-.5-.5-.5.2-.5.5zm-3 2c0 .3.2.5.5.5s.5-.2.5-.5-.2-.5-.5-.5-.5.2-.5.5zm45 0c0 .3.2.5.5.5s.5-.2.5-.5-.2-.5-.5-.5-.5.2-.5.5zm-49 2c0 .3.2.5.5.5s.5-.2.5-.5-.2-.5-.5-.5-.5.2-.5.5zm-3 1c0 .3.2.5.5.5s.5-.2.5-.5-.2-.5-.5-.5-.5.2-.5.5zm-4 1c0 .3.2.5.5.5s.5-.2.5-.5-.2-.5-.5-.5-.5.2-.5.5zm-105 1c0 .3.2.5.5.5s.5-.2.5-.5-.2-.5-.5-.5-.5.2-.5.5zm49 1c0 .3.2.5.5.5s.5-.2.5-.5-.2-.5-.5-.5-.5.2-.5.5zm-50 1c0 .3.2.5.5.5s.5-.2.5-.5-.2-.5-.5-.5-.5.2-.5.5zm158 1c0 .3.2.5.5.5s.5-.2.5-.5-.2-.5-.5-.5-.5.2-.5.5zm-156 1c0 .3.2.5.5.5s.5-.2.5-.5-.2-.5-.5-.5-.5.2-.5.5zm4 0c0 .3.2.5.5.5s.5-.2.5-.5-.2-.5-.5-.5-.5.2-.5.5zm8.8.2c.6.2 1.8.2 2.5 0l1.2-.5h-5zm20 0c2.8.2 7.6.2 10.5 0l5.2-.3h-21zm120.2 3.8c0 .3.2.5.5.5s.5-.2.5-.5-.2-.5-.5-.5-.5.2-.5.5zm-3.6 4.7-.7 1.1 1.1-.7c1.2-.7 1.6-1.6.8-1.6-.3 0-.8.5-1.2 1.2zm-5 5-.7 1.1 1.1-.7c1.2-.7 1.6-1.6.8-1.6-.3 0-.8.5-1.2 1.2zm-5 4-.7 1.1 1.1-.7c1.2-.7 1.6-1.6.8-1.6-.3 0-.8.5-1.2 1.2zm-3.4 2.3c0 .3.2.5.5.5s.5-.2.5-.5-.2-.5-.5-.5-.5.2-.5.5zm-2 1c0 .3.2.5.5.5s.5-.2.5-.5-.2-.5-.5-.5-.5.2-.5.5zm-2 1c0 .3.2.5.5.5s.5-.2.5-.5-.2-.5-.5-.5-.5.2-.5.5zm-2 1c0 .3.2.5.5.5s.5-.2.5-.5-.2-.5-.5-.5-.5.2-.5.5zm-2 1c0 .3.2.5.5.5s.5-.2.5-.5-.2-.5-.5-.5-.5.2-.5.5zm-3 1c0 .3.2.5.5.5s.5-.2.5-.5-.2-.5-.5-.5-.5.2-.5.5zm-3 1c0 .3.2.5.5.5s.5-.2.5-.5-.2-.5-.5-.5-.5.2-.5.5zm-3 1c0 .3.2.5.5.5s.5-.2.5-.5-.2-.5-.5-.5-.5.2-.5.5zm-5 1c0 .3.2.5.5.5s.5-.2.5-.5-.2-.5-.5-.5-.5.2-.5.5zm-25 11c0 .3.2.5.5.5s.5-.2.5-.5-.2-.5-.5-.5-.5.2-.5.5z"/><path fill="#4066ff" fill-opacity=".45" stroke="#4066ff" stroke-opacity=".45" stroke-width="1.3" d="M208 145.5c0 .3.2.5.5.5s.5-.2.5-.5-.2-.5-.5-.5-.5.2-.5.5z"/><path fill="#8099ff" fill-opacity=".45" stroke="#8099ff" stroke-opacity=".45" stroke-width="1.3" d="m203.4 151.2-.7 1.1 1.1-.7c1.2-.7 1.6-1.6.8-1.6-.3 0-.8.5-1.2 1.2zm-6.4 4.3c0 .3.2.5.5.5s.5-.2.5-.5-.2-.5-.5-.5-.5.2-.5.5z"/><path fill="#00f" stroke="#00f" stroke-width="1.3" d="M207 152.5c0 .3.2.5.5.5s.5-.2.5-.5-.2-.5-.5-.5-.5.2-.5.5zm27 11.1v2.5l1-.6c.6-.3 1-1.5 1-2.6V161h-2z"/><path fill="#406655" fill-opacity=".45" stroke="#406655" stroke-opacity=".45" stroke-width="1.3" d="M89.5 160c.3.5.8 1 1.1 1s.2-.5-.1-1c-.3-.6-.8-1-1.1-1s-.2.4.1 1z"/><path fill="#8066aa" fill-opacity=".45" stroke="#8066aa" stroke-opacity=".45" stroke-width="1.3" d="M94.5 160.1c-.4.6-.5 1.2-.2 1.5.2.3.7-.2 1-1.1.7-1.7.1-2-.8-.4zm44.9.1-.7 1.1 1.1-.7c.7-.4 1.2-.9 1.2-1.2 0-.8-.9-.4-1.6.8zm-57.4.3c0 .3.2.5.5.5s.5-.2.5-.5-.2-.5-.5-.5-.5.2-.5.5zm7.4 2.7-.7 1.1 1.1-.7c.7-.4 1.2-.9 1.2-1.2 0-.8-.9-.4-1.6.8zm42.6-.7c0 .3.2.5.5.5s.5-.2.5-.5-.2-.5-.5-.5-.5.2-.5.5zm-49 1c0 .3.2.5.5.5s.5-.2.5-.5-.2-.5-.5-.5-.5.2-.5.5zm2.8.2c.7.3 1.6.2 1.9-.1.4-.3-.2-.6-1.3-.5l-1.9.1zm9.2-.2c0 .3.2.5.5.5s.5-.2.5-.5-.2-.5-.5-.5-.5.2-.5.5zm7.8.2c1.7.2 4.7.2 6.5 0l3.2-.4h-13zm.2 14.8c0 .3.2.5.5.5s.5-.2.5-.5-.2-.5-.5-.5-.5.2-.5.5zm124 0c0 .3.2.5.5.5s.5-.2.5-.5-.2-.5-.5-.5-.5.2-.5.5zm-124 3c0 .3.2.5.5.5s.5-.2.5-.5-.2-.5-.5-.5-.5.2-.5.5zm5 0c0 .3.2.5.5.5s.5-.2.5-.5-.2-.5-.5-.5-.5.2-.5.5zm24 0c0 .3.2.5.5.5s.5-.2.5-.5-.2-.5-.5-.5-.5.2-.5.5zm67 10c0 .3.2.5.5.5s.5-.2.5-.5-.2-.5-.5-.5-.5.2-.5.5zm-23 1c0 .3.2.5.5.5s.5-.2.5-.5-.2-.5-.5-.5-.5.2-.5.5zm-3 11c0 .3.2.5.5.5s.5-.2.5-.5-.2-.5-.5-.5-.5.2-.5.5zm.2 20v3l.5-1.8c.2-.9.2-2.3 0-3l-.5-1.2zm-7.2 19c0 .3.2.5.5.5s.5-.2.5-.5-.2-.5-.5-.5-.5.2-.5.5z"/><g fill="#400055" stroke="#400055" stroke-width="1.3"><path d="m96.3 159.7.7.6.7-.6.6-.7h-2.6zm7.5 0c.7.3 1.6.2 1.9-.1.4-.3-.2-.6-1.3-.5l-1.9.1zm27.2-.2c0 .3.2.5.5.5s.5-.2.5-.5-.2-.5-.5-.5-.5.2-.5.5zm8 3c0 .3.2.5.5.5s.5-.2.5-.5-.2-.5-.5-.5-.5.2-.5.5zm0 4c0 .3.2.5.5.5s.5-.2.5-.5-.2-.5-.5-.5-.5.2-.5.5zm.2 6v3l.5-1.8c.2-.9.2-2.3 0-3l-.5-1.2zm-.2 5.9c0 3.1.6 3.4 1.3.6l.5-2-.9-.6-.9-.5zm-44 .1c0 .3.2.5.5.5s.5-.2.5-.5-.2-.5-.5-.5-.5.2-.5.5zm2.8.2c.6.2 1.8.2 2.5 0l1.2-.5h-5z"/><path d="M102 179.2v1.7l-2.2.4-2.3.4 2.7.2 2.7.1.7-1.1.6-1.1-1.1-1.1-1.1-1.1zm6.5-.2-.7 1.2.9.9 1 1 11.4-.3 11.4-.3v-3l-11.6-.3-11.7-.4zm15 1c-1.1.5-4.6.9-7.7.9l-5.8.1v-2l7.8.1h7.7zm-28.2 1.7.7.6.7-.6.6-.7h-2.6zm43.8 9.1-.1 9.3 1-.6 1-.6-.1-6.2c-.1-3.4-.5-7.3-.9-8.7l-.8-2.5zm33.3 26.2v12.5l.3-6.3c.2-3.4.2-9 0-12.5l-.3-6.2zm-1.4 14.5c0 .3.2.5.5.5s.5-.2.5-.5-.2-.5-.5-.5-.5.2-.5.5zm-1 2.5v1.3l.7-.6.6-.7-.6-.7-.7-.6zm-1 2.5c0 .3.2.5.5.5s.5-.2.5-.5-.2-.5-.5-.5-.5.2-.5.5zm-9 10c0 .3.2.5.5.5s.5-.2.5-.5-.2-.5-.5-.5-.5.2-.5.5z"/></g><path stroke="#000" stroke-width="1.3" d="M130 159.5c0 .3.2.5.5.5s.5-.2.5-.5-.2-.5-.5-.5-.5.2-.5.5zm-35 2c0 .3.2.5.5.5s.5-.2.5-.5-.2-.5-.5-.5-.5.2-.5.5zm36 1c0 .3.2.5.5.5s.5-.2.5-.5-.2-.5-.5-.5-.5.2-.5.5zm-1.7 16.2.7.6.7-.6.6-.7h-2.6z"/><g fill="#4000aa" stroke="#4000aa" stroke-width="1.3"><path d="m86.3 161.7.7.6.7-.6.6-.7h-2.6zm14 0c2 .2 5.4.2 7.5 0l3.7-.4h-15zm38.7-.2c0 .3.2.5.5.5s.5-.2.5-.5-.2-.5-.5-.5-.5.2-.5.5zm4 5c0 .3.2.5.5.5s.5-.2.5-.5-.2-.5-.5-.5-.5.2-.5.5zm-.8 6.1c-.6.7-1.2 1.8-1.2 2.4v1.1l-1.2-.7-1.3-.7 1.2 1.3 1.2 1.3-.9 2.2c-.5 1.3-.7 2.5-.4 2.7.2.3.8 3.2 1.2 6.4l.7 5.9 2-.3c2.5-.3 9.9 2.6 14.6 5.7l3.6 2.5 1.1 2.8 1 2.8h4l.5-1.3.4-1.2.9.8c.4.4 1.1 2.9 1.5 5.5l.6 4.7.2-11 .1-11.1 1.6-2.2 1.5-2.2-.6-2.9-.6-2.9-2.2-.6c-1.2-.3-3.2-.6-4.5-.6h-2.4l-2.9-3-3-3-4-1.2c-2.2-.6-4.6-1.9-5.2-2.7l-1.2-1.6-2.5-.1-2.5-.2zm53.8 18.9c0 .3.2.5.5.5s.5-.2.5-.5-.2-.5-.5-.5-.5.2-.5.5z"/><path d="m174.4 193.2-.7 1.1 1.1-.7c1.2-.7 1.6-1.6.8-1.6-.3 0-.8.5-1.2 1.2zm-1.3 3.4.1 1.9.5-1.3c.3-.7.2-1.6-.1-1.9-.3-.4-.6.2-.5 1.3zm-33.1 2.9c0 .3.2.5.5.5s.5-.2.5-.5-.2-.5-.5-.5-.5.2-.5.5zm33 9c0 .3.2.5.5.5s.5-.2.5-.5-.2-.5-.5-.5-.5.2-.5.5zm0 2c0 .3.2.5.5.5s.5-.2.5-.5-.2-.5-.5-.5-.5.2-.5.5z"/></g><path fill="#406655" stroke="#406655" stroke-width="1.3" d="M90 161.5c0 .3.2.5.5.5s.5-.2.5-.5-.2-.5-.5-.5-.5.2-.5.5z"/><path fill="#bf66aa" fill-opacity=".45" stroke="#bf66aa" stroke-opacity=".45" stroke-width="1.3" d="M82 162.5c0 .3.2.5.5.5s.5-.2.5-.5-.2-.5-.5-.5-.5.2-.5.5zm12.6 15.3-.5.8 3.7-.4c5.6-.5 6.2-1 1.5-1.1l-4.2-.1zm17.9-.1c2.2.1 7.7.4 12.2.5l8.1.3-.5-.8-.4-.7-11.7.2c-6.4.1-9.9.3-7.7.5zM94 181.5c0 .3.2.5.5.5s.5-.2.5-.5-.2-.5-.5-.5-.5.2-.5.5zm3.3 1.2c.9.2 2.3.2 3 0l1.2-.5h-6zm15 0c1.5.2 3.7.2 5 0l2.2-.4h-10zm10 0 .7.6.7-.6.6-.7h-2.6zm5 0c.9.2 2.5.2 3.5 0l1.7-.5h-7zm76.7 7.8c0 .3.2.5.5.5s.5-.2.5-.5-.2-.5-.5-.5-.5.2-.5.5zm-85 7c0 .3.2.5.5.5s.5-.2.5-.5-.2-.5-.5-.5-.5.2-.5.5zm13 0c0 .3.2.5.5.5s.5-.2.5-.5-.2-.5-.5-.5-.5.2-.5.5zm-13 3c0 .3.2.5.5.5s.5-.2.5-.5-.2-.5-.5-.5-.5.2-.5.5zm9 1c0 .3.2.5.5.5s.5-.2.5-.5-.2-.5-.5-.5-.5.2-.5.5zm4 13c0 .3.2.5.5.5s.5-.2.5-.5-.2-.5-.5-.5-.5.2-.5.5zm41 12.5v1.3l.7-.6.6-.7-.6-.7-.7-.6zm-35 1.5c0 .3.2.5.5.5s.5-.2.5-.5-.2-.5-.5-.5-.5.2-.5.5zm34 3c0 .3.2.5.5.5s.5-.2.5-.5-.2-.5-.5-.5-.5.2-.5.5zm-1 3c0 .3.2.5.5.5s.5-.2.5-.5-.2-.5-.5-.5-.5.2-.5.5zm-1 2c0 .3.2.5.5.5s.5-.2.5-.5-.2-.5-.5-.5-.5.2-.5.5zm-32 1c0 .3.2.5.5.5s.5-.2.5-.5-.2-.5-.5-.5-.5.2-.5.5zm31 1c0 .3.2.5.5.5s.5-.2.5-.5-.2-.5-.5-.5-.5.2-.5.5zm-2 3c0 .3.2.5.5.5s.5-.2.5-.5-.2-.5-.5-.5-.5.2-.5.5zm-3.6 3.7-1.9 2.3 2.3-1.9c2.1-1.8 2.7-2.6 1.9-2.6-.2 0-1.2 1-2.3 2.2zm-4.4 3.3c0 .3.2.5.5.5s.5-.2.5-.5-.2-.5-.5-.5-.5.2-.5.5zm-2 1c0 .3.2.5.5.5s.5-.2.5-.5-.2-.5-.5-.5-.5.2-.5.5zm-2.7 1.2.7.6.7-.6.6-.7h-2.6zm-3 1 .7.6.7-.6.6-.7h-2.6zm-4.3.8c0 .3.2.5.5.5s.5-.2.5-.5-.2-.5-.5-.5-.5.2-.5.5z"/><path fill="#400000" stroke="#400000" stroke-width="1.3" d="M95.5 179.1c-.4.6-.5 1.2-.2 1.5.2.3.7-.2 1-1.1.7-1.7.1-2-.8-.4zm5.5-.6c0 .3.2.5.5.5s.5-.2.5-.5-.2-.5-.5-.5-.5.2-.5.5z"/><path fill="#8066aa" stroke="#8066aa" stroke-width="1.3" d="M108 178.5c0 .3.2.5.5.5s.5-.2.5-.5-.2-.5-.5-.5-.5.2-.5.5zm65 26.5v1.3l.7-.6.6-.7-.6-.7-.7-.6zm0 15v1.3l.7-.6.6-.7-.6-.7-.7-.6zm-1 10.5c0 .3.2.5.5.5s.5-.2.5-.5-.2-.5-.5-.5-.5.2-.5.5z"/><path fill="#806655" stroke="#806655" stroke-width="1.3" d="M94 180v1.3l.7-.6.6-.7-.6-.7-.7-.6zm26 17.5c0 .3.2.5.5.5s.5-.2.5-.5-.2-.5-.5-.5-.5.2-.5.5zm12 1.5v1.3l.7-.6.6-.7-.6-.7-.7-.6z"/><path fill="#800055" stroke="#800055" stroke-width="1.3" d="M96.2 180.1c.2.6.7 1 1.1 1 .4-.1 1.6-.1 2.7-.1h2v-2h-6.2zm13.8 0v.9h4.2c4.9 0 4.7-.5-.4-1.3l-3.8-.6zm13.3-.4.7.6.7-.6.6-.7h-2.6zm-2.3.8c0 .3.2.5.5.5s.5-.2.5-.5-.2-.5-.5-.5-.5.2-.5.5zm0 17c0 .3.2.5.5.5s.5-.2.5-.5-.2-.5-.5-.5-.5.2-.5.5zm18.1 7 .1 5 .9-3.3 1-3.3-1-1.7-1-1.7zm.2 15v7l.4-3.8c.2-2 .2-5.2 0-7l-.4-3.2zm31.7 11c0 .3.2.5.5.5s.5-.2.5-.5-.2-.5-.5-.5-.5.2-.5.5zm0 2c0 .3.2.5.5.5s.5-.2.5-.5-.2-.5-.5-.5-.5.2-.5.5zm-1.7 3.2.7.6.7-.6.6-.7h-2.6zm-4.1 5.6c-4.5 4.6-5.9 7.6-1.6 3.6 2.6-2.4 6.9-7.9 6.2-7.9-.2 0-2.3 1.9-4.6 4.3zm-26.1 2.3.1 1.9.5-1.3c.3-.7.2-1.6-.1-1.9-.3-.4-.6.2-.5 1.3zm15.4 5.3-4 1.9 1.5.1c.8 0 3.1-.8 5-1.9 4.5-2.5 2.7-2.5-2.5-.1zm-15 3.1c.3.5.8 1 1.1 1s.2-.5-.1-1c-.3-.6-.8-1-1.1-1s-.2.4.1 1z"/><path fill="#bf99ff" fill-opacity=".45" stroke="#bf99ff" stroke-opacity=".45" stroke-width="1.3" d="M107 179.5c0 .3.2.5.5.5s.5-.2.5-.5-.2-.5-.5-.5-.5.2-.5.5z"/><path fill="#8000aa" stroke="#8000aa" stroke-width="1.3" d="m115.9 180.1 4.4.8 1.6-.9 1.6-.9h-6l-6 .1zm25 17.1c-.3 5.7-.6 8.4-1.3 11.9l-.8 3.7 1.1.6 1.1.7V206h1c.6 0 3.5 2.5 6.5 5.5 3.1 3 6 5.5 6.5 5.5s1.6 1.3 2.5 3c.8 1.6 2.6 3.7 4 4.6l2.4 1.6.3 3.6.3 3.7 1.3-.3 1.2-.2v5.6l-1.2 1.4-1.3 1.4 1.6-1.2c.9-.6 1.9-1 2.2-.7.4.3.5.2.3-.1s0-1.9.6-3.5l1-2.9.8.5.8.5-.5-2-.5-2h1.7l-.7-8.3c-.3-4.5-.7-9.3-.7-10.7-.1-1.4-.6-3.2-1.2-4l-1.1-1.5-.5 1.2-.5 1.3h-4l-1-2.8-1.1-2.8-3.6-2.5c-4.7-3.1-11.9-5.9-14.8-5.7l-2.3.2zm28.8 32.5-.7.6v-2.6l.7.6.6.7zM173 207v1.3l.7-.6.6-.7-.6-.7-.7-.6zm0 2.5c0 .3.2.5.5.5s.5-.2.5-.5-.2-.5-.5-.5-.5.2-.5.5zm.3 5.5v4.5l.4-2.3c.2-1.2.2-3.2 0-4.5l-.4-2.2z"/><path fill="#8066ff" fill-opacity=".45" stroke="#8066ff" stroke-opacity=".45" stroke-width="1.3" d="M226 179.5c0 .3.2.5.5.5s.5-.2.5-.5-.2-.5-.5-.5-.5.2-.5.5zm-16 9c0 .3.2.5.5.5s.5-.2.5-.5-.2-.5-.5-.5-.5.2-.5.5zm-3 1c0 .3.2.5.5.5s.5-.2.5-.5-.2-.5-.5-.5-.5.2-.5.5z"/><path fill="#4000aa" fill-opacity=".45" stroke="#4000aa" stroke-opacity=".45" stroke-width="1.3" d="M197 191.5c0 .3.2.5.5.5s.5-.2.5-.5-.2-.5-.5-.5-.5.2-.5.5z"/><path fill="#f9a" fill-opacity=".45" stroke="#f9a" stroke-opacity=".45" stroke-width="1.3" d="M109 196.5c0 .3.2.5.5.5s.5-.2.5-.5-.2-.5-.5-.5-.5.2-.5.5zm2.3.2.7.6.7-.6.6-.7h-2.6zm11.5 0c1.2.2 3.2.2 4.5 0l2.2-.4h-9zm-10.5 5 .7.6.7-.6.6-.7h-2.6zm8 0 .7.6.7-.6.6-.7h-2.6zm13.5 29c.7.3 1.6.2 1.9-.1.4-.3-.2-.6-1.3-.5l-1.9.1zm3.2 5.8c0 .3.2.5.5.5s.5-.2.5-.5-.2-.5-.5-.5-.5.2-.5.5z"/><path fill="#f95" fill-opacity=".45" stroke="#f95" stroke-opacity=".45" stroke-width="1.3" d="M110 196.5c0 .3.2.5.5.5s.5-.2.5-.5-.2-.5-.5-.5-.5.2-.5.5zm.3 5.2.7.6.7-.6.6-.7h-2.6zm0 17 .7.6.7-.6.6-.7h-2.6zm21.7 11.8c0 .3.2.5.5.5s.5-.2.5-.5-.2-.5-.5-.5-.5.2-.5.5z"/><path fill="#f6a" fill-opacity=".45" stroke="#f6a" stroke-opacity=".45" stroke-width="1.3" d="m129.3 196.7.7.6.7-.6.6-.7h-2.6zm-7 5 .7.6.7-.6.6-.7h-2.6zm7.5 0c.7.3 1.6.2 1.9-.1.4-.3-.2-.6-1.3-.5l-1.9.1zm8.2 25.8c0 .3.2.5.5.5s.5-.2.5-.5-.2-.5-.5-.5-.5.2-.5.5zm-1.6 2.7-.7 1.1 1.1-.7c1.2-.7 1.6-1.6.8-1.6-.3 0-.8.5-1.2 1.2zm11.6 22.3c0 .3.2.5.5.5s.5-.2.5-.5-.2-.5-.5-.5-.5.2-.5.5z"/><path fill="#bf6655" fill-opacity=".45" stroke="#bf6655" stroke-opacity=".45" stroke-width="1.3" d="M107 197.5c0 .3.2.5.5.5s.5-.2.5-.5-.2-.5-.5-.5-.5.2-.5.5zm8 1.5v1.3l.7-.6.6-.7-.6-.7-.7-.6zm-8 1.5c0 .3.2.5.5.5s.5-.2.5-.5-.2-.5-.5-.5-.5.2-.5.5zm25 0c0 .3.2.5.5.5s.5-.2.5-.5-.2-.5-.5-.5-.5.2-.5.5zm-6.2 1.2c.7.3 1.6.2 1.9-.1.4-.3-.2-.6-1.3-.5l-1.9.1zm-6 12c2.3.2 5.9.2 8 0l3.7-.4h-16zm5.5 5c.9.2 2.5.2 3.5 0l1.7-.5h-7z"/><path fill="#806600" stroke="#806600" stroke-width="1.3" d="M107.5 198c-.8 1.3.3 3 1.8 3h1.2l-1.4-.9-1.4-.9.7-1.1c.4-.6.5-1.1.2-1.1s-.8.4-1.1 1zm5.5-.5c0 .3.2.5.5.5s.5-.2.5-.5-.2-.5-.5-.5-.5.2-.5.5zm.5 2.5-.6 1h1c.6 0 1.1-.5 1.1-1 0-.6-.2-1-.4-1-.3 0-.8.4-1.1 1zm6.5.5c0 .3.2.5.5.5s.5-.2.5-.5-.2-.5-.5-.5-.5.2-.5.5zm11 14c0 .3.2.5.5.5s.5-.2.5-.5-.2-.5-.5-.5-.5.2-.5.5z"/><path fill="maroon" stroke="maroon" stroke-width="1.3" d="m108.4 198.2-.7 1.1 1.1-.7c1.2-.7 1.6-1.6.8-1.6-.3 0-.8.5-1.2 1.2zm20.9-.5c2.6.7 2 2.1-1 2.6l-2.8.4 3.3.2 3.2.1v-4l-2.2.1-2.3.1zm-2.3 17c1.9.3 3.9 1 4.3 1.6l.9 1.2-.5-1.5-.4-1.5-3.9-.1-3.9-.2zm2 2.8c0 .3.2.5.5.5s.5-.2.5-.5-.2-.5-.5-.5-.5.2-.5.5z"/><g fill="#bf0000" stroke="#bf0000" stroke-width="1.3"><path d="m108.9 198.7-1.4 1.7 1.3-.8 1.2-.7v2.1l1.8-.1 1.7-.1-1.2-.5c-.7-.2-1.3-.9-1.3-1.4v-1l1 .6 1 .6v-1c0-1.7-2.6-1.3-4.1.6zm13.1-1.2c0 .3.2.5.5.5s.5-.2.5-.5-.2-.5-.5-.5-.5.2-.5.5z"/><path d="M124 198.4c0 1.9-1.1 2.1-2.9.3l-1.3-1.2.4 1.5.5 1.5 4.8-.3c6.9-.3 7.7-1.6 1.7-2.8l-3.2-.7zm-3 16.2c.8.4 2 1.3 2.7 2.1l1.1 1.5 2.1-.4 2-.3-.7-1.2-.7-1.1-4-.6-4-.6zm13.3 17.2-1.2.8.7 1c.4.6 1.6 1.3 2.8 1.6l2.1.5-.5-2.3-.4-2.4h-1.2c-.6 0-1.6.4-2.3.8z"/></g><path fill="#bf6655" stroke="#bf6655" stroke-width="1.3" d="M114 197.5c0 .3.2.5.5.5s.5-.2.5-.5-.2-.5-.5-.5-.5.2-.5.5zm5 1.5v1.3l.7-.6.6-.7-.6-.7-.7-.6zm12.6 17.7-.7 1.8 1.2-1.2c.7-.7 1-1.5.7-1.8s-.9.2-1.2 1.2zm-25.6-.2c0 .3.2.5.5.5s.5-.2.5-.5-.2-.5-.5-.5-.5.2-.5.5zm31 14c0 .3.2.5.5.5s.5-.2.5-.5-.2-.5-.5-.5-.5.2-.5.5zm-18 4c0 .3.2.5.5.5s.5-.2.5-.5-.2-.5-.5-.5-.5.2-.5.5zm12.8 1.2c1.2.2 3 .2 4 0l1.7-.5-4 .1h-4zm6.2.8c0 .3.2.5.5.5s.5-.2.5-.5-.2-.5-.5-.5-.5.2-.5.5z"/><g fill="#bf0055" stroke="#bf0055" stroke-width="1.3"><path d="m122 198-1.5 1h1.2c.6 0 1.5-.5 1.8-1 .8-1.2.4-1.2-1.5 0zm18 16.5c0 .3.2.5.5.5s.5-.2.5-.5-.2-.5-.5-.5-.5.2-.5.5zm-.2 8c-.4 2.7-1 6.1-1.4 7.5l-.7 2.5 1.6-1.3 1.6-1.4 1 .6.9.6-.5 2.1-.6 2.1-1.8-.5-1.9-.5-.7 1-.6 1.1 1.1-.7 1.2-.7.2 3.8c.1 2.1 0 5.6-.1 7.9l-.2 4 1.6 1.4 1.5 1.3 4.3-.9 4.2-.9.1-1.3c.1-.6.3-1.5.4-2 .3-.9.3-.8-.5-6.2-.4-2.5-1-4.7-1.4-5s-1-1.3-1.4-2.2l-.6-1.8-1.6.6-1.5.6v-1.1c0-.6.5-1.1 1-1.1h1l-1.5-2.3-1.5-2.4.7-.6.6-.7h-3.8l1.5-1 1.5-1h-2.4l-.3-3.3-.3-3.2zm2.9 19.2-.7.6v-2.6l.7.6.6.7zm3.3 1.8c0 .3-.2.5-.5.5s-.5-.2-.5-.5.2-.5.5-.5.5.2.5.5zm-1.7 6.8-.5.8-1.3-1.1-1.4-1.1.6-1.5.5-1.5 1.3 1.8c.7 1 1.1 2.1.8 2.6z"/><path d="M140 233.5c0 .3.2.5.5.5s.5-.2.5-.5-.2-.5-.5-.5-.5.2-.5.5zm21 11c0 .3.2.5.5.5s.5-.2.5-.5-.2-.5-.5-.5-.5.2-.5.5zm-4.5 2.5-.6 1h.8c.4 0 1.5-.5 2.3-1l1.5-1h-1.7c-.9 0-2 .4-2.3 1zm-4 2-.6 1 1.5-.6c1.8-.7 2.1-1.4.7-1.4-.6 0-1.3.4-1.6 1z"/></g><path fill="#bf99aa" fill-opacity=".45" stroke="#bf99aa" stroke-opacity=".45" stroke-width="1.3" d="M106 199v1.3l.7-.6.6-.7-.6-.7-.7-.6zm2 2.5c0 .3.2.5.5.5s.5-.2.5-.5-.2-.5-.5-.5-.5.2-.5.5zm23 12c0 .3.2.5.5.5s.5-.2.5-.5-.2-.5-.5-.5-.5.2-.5.5zm1 4c0 .3.2.5.5.5s.5-.2.5-.5-.2-.5-.5-.5-.5.2-.5.5zm-2 1c0 .3.2.5.5.5s.5-.2.5-.5-.2-.5-.5-.5-.5.2-.5.5z"/><path fill="#f60" stroke="#f60" stroke-width="1.3" d="M111 198.5c0 .3.2.5.5.5s.5-.2.5-.5-.2-.5-.5-.5-.5.2-.5.5zm5.3 17.2.7.6.7-.6.6-.7h-2.6zM123 233l-1.5 1h6.4c7.3 0 7.7-.5 1.1-1.4l-4.5-.6z"/><path fill="#bf6600" stroke="#bf6600" stroke-width="1.3" d="m112.5 199-.6 1h1c.5 0 1.3-.5 1.6-1l.6-1h-1c-.5 0-1.3.4-1.6 1zm-3.5.5c0 .3.2.5.5.5s.5-.2.5-.5-.2-.5-.5-.5-.5.2-.5.5zm-2 16.5v2h17v-1c0-1.7-4.8-3-11.1-3H107zm10.7-.3-.7.6-.7-.6-.6-.7h2.6zm10.3.2c0 .5.7 1.1 1.5 1.5l1.5.5V215h-1.5c-.8 0-1.5.4-1.5.9zm-8.5 16.1c-.3.5-.3 1.4 0 2l.6 1 7.2-.2 7.2-.1-6.5-.6-6.5-.6 1.9-.8 1.9-.7 3.3.6 3.2.6 1.9-1.1 1.8-1-7.7-.1h-7.7z"/><path fill="#f05" stroke="#f05" stroke-width="1.3" d="m122.4 199.2-.7 1.1 1.1-.7c.7-.4 1.2-.9 1.2-1.2 0-.8-.9-.4-1.6.8zm16.7 32.2-1.3 1.5.7 1.1c.3.5 1.3 1 2.1 1h1.4v-1.5c0-.8 0-1.8.1-2.2.1-1.4-1.8-1.3-3 .1zm1.9 2.1c0 .3-.2.5-.5.5s-.5-.2-.5-.5.2-.5.5-.5.5.2.5.5zm1 7.5v1.3l.7-.6.6-.7-.6-.7-.7-.6zm3 2.5c0 .3.2.5.5.5s.5-.2.5-.5-.2-.5-.5-.5-.5.2-.5.5zm-3.3 3.9-.6 1.5 1.4 1.1 1.3 1.1.5-.8c.3-.5-.1-1.6-.8-2.6l-1.3-1.8z"/><path fill="red" stroke="red" stroke-width="1.3" d="M111 199.5c0 .3.2.5.5.5s.5-.2.5-.5-.2-.5-.5-.5-.5.2-.5.5zm12 0c0 .3.2.5.5.5s.5-.2.5-.5-.2-.5-.5-.5-.5.2-.5.5z"/><path fill="#bf9955" fill-opacity=".45" stroke="#bf9955" stroke-opacity=".45" stroke-width="1.3" d="M109 201.5c0 .3.2.5.5.5s.5-.2.5-.5-.2-.5-.5-.5-.5.2-.5.5zm.8 12.2c1.2.2 3.2.2 4.5 0l2.2-.4h-9zm-3.8 3.8c0 .3.2.5.5.5s.5-.2.5-.5-.2-.5-.5-.5-.5.2-.5.5zm2.3 1.2.7.6.7-.6.6-.7h-2.6zm6.5 0c1.7.2 4.7.2 6.5 0l3.2-.4h-13zm5.2 16.8c0 .3.2.5.5.5s.5-.2.5-.5-.2-.5-.5-.5-.5.2-.5.5z"/><path fill="#f65" fill-opacity=".45" stroke="#f65" stroke-opacity=".45" stroke-width="1.3" d="M124 201.5c0 .3.2.5.5.5s.5-.2.5-.5-.2-.5-.5-.5-.5.2-.5.5z"/><path fill="#bf00aa" stroke="#bf00aa" stroke-width="1.3" d="M140.8 210.7c-.1 2.7 0 6.6.1 8.8l.3 4 1 .6 1 .7-1.3.5-1.4.5 1.9.1 1.9.1-.6.7-.7.6 1.5 2.4 1.5 2.3h-1c-.5 0-1 .5-1 1.1v1.1l1.5-.6 1.6-.6.6 1.8c.4.9 1 1.9 1.4 2.2s1 2.5 1.4 5 .9 4.7 1.1 4.9-.1 1-.7 1.8c-1.6 1.8-.6 1.6 3.6-.7 2-1.1 4.1-2 4.7-2s2.7-1.6 4.5-3.6l3.3-3.7V233l-1.2.3-1.3.2-.3-3.7-.3-3.6-2.4-1.6c-1.4-.9-3.2-3-4-4.6-.9-1.7-2-3-2.5-3s-3.4-2.5-6.5-5.5c-3-3-5.9-5.5-6.5-5.5h-1zM169 229v1.3l.7-.6.6-.7-.6-.7-.7-.6zm-11 19.5c0 .3.2.5.5.5s.5-.2.5-.5-.2-.5-.5-.5-.5.2-.5.5z"/><path fill="#bfccaa" fill-opacity=".45" stroke="#bfccaa" stroke-opacity=".45" stroke-width="1.3" d="M107 213.5c0 .3.2.5.5.5s.5-.2.5-.5-.2-.5-.5-.5-.5.2-.5.5z"/><path fill="#bfcc55" fill-opacity=".45" stroke="#bfcc55" stroke-opacity=".45" stroke-width="1.3" d="M106 214.5c0 .3.2.5.5.5s.5-.2.5-.5-.2-.5-.5-.5-.5.2-.5.5z"/><path fill="#bf9955" stroke="#bf9955" stroke-width="1.3" d="M106 215.5c0 .3.2.5.5.5s.5-.2.5-.5-.2-.5-.5-.5-.5.2-.5.5zm13 16c0 .3.2.5.5.5s.5-.2.5-.5-.2-.5-.5-.5-.5.2-.5.5zm2.3 4.2.7.6.7-.6.6-.7h-2.6zm4 0c.9.2 2.5.2 3.5 0l1.7-.5h-7z"/><path fill="#fca" fill-opacity=".45" stroke="#fca" stroke-opacity=".45" stroke-width="1.3" d="M107 218.5c0 .3.2.5.5.5s.5-.2.5-.5-.2-.5-.5-.5-.5.2-.5.5zm14 12c0 .3.2.5.5.5s.5-.2.5-.5-.2-.5-.5-.5-.5.2-.5.5zm4.3.2c.9.2 2.3.2 3 0l1.2-.5h-6zm-7.3 2.7c0 .8.4 1.7.9 2l.9.6-.5-2c-.6-2.3-1.3-2.6-1.3-.6z"/><path fill="#fc5" fill-opacity=".45" stroke="#fc5" stroke-opacity=".45" stroke-width="1.3" d="m122.3 230.7.7.6.7-.6.6-.7h-2.6zm7.5 0c.7.3 1.6.2 1.9-.1.4-.3-.2-.6-1.3-.5l-1.9.1z"/><path fill="#bf9900" stroke="#bf9900" stroke-width="1.3" d="M123 235.5c0 .3.2.5.5.5s.5-.2.5-.5-.2-.5-.5-.5-.5.2-.5.5z"/><path fill="#bf66aa" stroke="#bf66aa" stroke-width="1.3" d="M160 247.5c0 .3.2.5.5.5s.5-.2.5-.5-.2-.5-.5-.5-.5.2-.5.5zm-4 2c0 .3.2.5.5.5s.5-.2.5-.5-.2-.5-.5-.5-.5.2-.5.5zm-6 2c0 .3.2.5.5.5s.5-.2.5-.5-.2-.5-.5-.5-.5.2-.5.5zm-4 1c0 .3.2.5.5.5s.5-.2.5-.5-.2-.5-.5-.5-.5.2-.5.5z"/><path fill="#806655" fill-opacity=".45" stroke="#806655" stroke-opacity=".45" stroke-width="1.3" d="M139 252.5c0 .3.2.5.5.5s.5-.2.5-.5-.2-.5-.5-.5-.5.2-.5.5z"/></svg>